<?xml version="1.0" encoding="UTF-8" standalone="no"?>
<!-- Created with Inkscape (http://www.inkscape.org/) -->

<svg
   width="193.14581mm"
   height="64.029167mm"
   viewBox="0 0 193.14581 64.029167"
   version="1.1"
   id="svg1"
   xml:space="preserve"
   xmlns="http://www.w3.org/2000/svg"
   xmlns:svg="http://www.w3.org/2000/svg"><defs
     id="defs1" /><g
     id="layer1"
     transform="translate(-260.06943,14.311982)"><g
       id="g34"
       transform="translate(-103.82613,-42.491543)"><rect
         style="fill:none;fill-opacity:1;stroke-width:0.330003"
         id="rect32"
         width="193.14583"
         height="64.029167"
         x="363.89557"
         y="28.179562" /><g
         id="g32"
         transform="translate(95.44999,26.352949)"><path
           id="path23"
           style="fill:#003087;fill-opacity:1"
           d="m 349.71354,46.008561 -1.38803,7.679635 0.78135,-0.0067 0.31729,-1.5875 h 0.74001 0.73949 l 0.30334,1.5875 h 0.79685 l -1.32395,-7.672917 h -0.48318 z m 0.47439,2.13217 0.6165,3.42408 h -1.23249 z" /><path
           style="fill:#d22630;fill-opacity:1"
           d="m 356.23635,27.459716 c -1e-5,-0.800018 -0.13454,-1.294693 -0.76953,-1.294685 l -4.83755,7e-6 h -4.81986 c -0.68488,0.01425 -0.62142,0.592193 -0.64913,0.997612 l -10e-6,0.344394 c 0,1.421238 -2.15267,1.362772 -2.15267,-0.0064 l 10e-6,-0.710441 v -0.897531 c -0.0596,-0.898766 0.79966,-1.949142 1.81034,-1.976604 l 11.57803,-0.02886 c 1.09415,0 1.95745,0.667452 1.95746,2.227166 l -10e-6,1.022881 v 0.422791 c 0,1.371036 -2.13188,1.290525 -2.11708,0.12806 z"
           id="path32" /><path
           style="fill:#003087;fill-opacity:1"
           d="M 333.21761,25.635871 V 13.994205 h 11.50937 11.50938 v 1.848782 1.848783 l -9.59115,0.06945 -9.59115,0.06945 -0.0694,9.723437 -0.0694,9.723437 h -1.84882 -1.84882 z"
           id="path31" /><path
           style="fill:#d22630;fill-opacity:1"
           d="m 360.73426,39.734855 10e-6,-7.616693 -10e-6,-7.45382 c 0,-0.381621 0.35715,-0.777121 0.73836,-0.777121 h 33.92514 c 1.88785,0 1.90438,2.27781 -0.004,2.277817 h -4.65438 -4.86109 l -0.005,13.333385 c 0,1.2359 -2.12405,1.24251 -2.12405,-7e-6 l -0.006,-13.333378 H 373.29755 362.8509 v 2.381249 2.38125 h 6.29708 l 5.75336,-6e-6 c 1.72661,5.36e-4 1.79289,2.381687 -1e-5,2.38125 l -5.75335,6e-6 h -6.29708 v 2.38125 2.38125 h 6.10281 l 5.94762,-6e-6 c 1.75273,-0.01041 1.77478,2.351151 0,2.3561 l -6.49418,0.02516 -6.8717,-0.02516 c -0.64439,0 -0.80119,-0.371358 -0.80119,-0.692526 z"
           id="path30" /><path
           style="fill:#d22630;fill-opacity:1"
           d="m 343.0076,38.281987 v -3.452676 l 4e-5,-2.76546 c 0,-1.553789 2.15267,-1.528838 2.15267,0 l -4e-5,2.330971 v 2.995982 c 0,0.452914 0.22458,0.680477 0.64947,0.680477 l 4.83298,8e-6 h 4.95856 c 0.3776,-8e-6 0.63507,-0.263378 0.635,-0.635 v -2.06375 -2.06375 h -3.51896 l -2.98976,-8e-6 c -1.71915,-1e-6 -1.68327,-2.38125 2e-5,-2.38125 l 3.73059,8e-6 4.22391,-8e-6 c 0.3649,-8e-6 0.67182,0.318416 0.67135,0.675371 l -4.7e-4,3.239335 v 3.279698 c 4.9e-4,1.360314 -1.19473,2.305446 -2.11659,2.305446 l -5.59631,0.0084 -5.11939,-0.01677 c -1.19921,0.0084 -2.51308,-1.258696 -2.51308,-2.137012 z"
           id="path29" /><path
           style="fill:#003087;fill-opacity:1"
           d="m 366.55511,50.10983 v -3.571875 h -0.66146 -0.66146 v -0.264583 -0.264583 h 1.71979 1.71979 v 0.264583 0.264583 h -0.66146 -0.66145 v 3.571875 3.571875 h -0.39688 -0.39687 z"
           id="path28" /><path
           style="fill:#003087;fill-opacity:1"
           d="m 360.73427,49.845247 v -3.836458 h 0.37483 0.37482 l 0.92721,2.711979 0.9272,2.711979 0.0209,-2.711979 0.0209,-2.711979 h 0.39687 0.39688 v 3.855858 l 0.004,3.817044 h -0.85694 l -0.89021,-2.645827 -0.86126,-2.513542 -0.0208,2.579688 -0.0208,2.579687 h -0.39687 -0.39688 z"
           id="path27" /><path
           style="fill:#003087;fill-opacity:1"
           d="m 356.76552,49.845247 v -3.836458 h 1.45521 1.45521 v 0.264583 0.264583 h -1.05833 -1.05834 v 1.322917 1.322917 h 0.79375 0.79375 v 0.264583 0.264583 h -0.79375 -0.79375 v 1.5875 1.5875 h 1.05834 1.05833 v 0.396875 0.396875 h -1.45521 -1.45521 z"
           id="path26" /><path
           style="fill:#003087;fill-opacity:1"
           d="m 353.06136,49.845247 v -3.836458 h 0.39687 0.39688 v 3.439583 3.439583 h 1.05833 1.05833 v 0.396875 0.396875 h -1.45521 -1.4552 z"
           id="path25" /><path
           style="fill:#003087;fill-opacity:1"
           d="m 345.91761,50.10983 v -3.571875 h -0.66146 -0.66146 v -0.264583 -0.264583 h 1.71979 1.71979 v 0.264583 0.264583 h -0.66146 -0.66145 v 3.571875 3.571875 h -0.39688 -0.39687 z"
           id="path22" /><path
           style="fill:#003087;fill-opacity:1"
           d="m 343.00719,49.845247 v -3.836458 h 0.39687 0.39688 v 3.836458 3.836458 h -0.39688 -0.39687 z"
           id="path4" /></g></g></g></svg>
